# xmcd
#
# Track frame offsets:
#	150
#	14177
#	29095
#	42167
#	55002
#	69407
#	81165
#	94605
#	107000
#	119737
#	134375
#	147782
#	160130
#	172730
#	186840
#	199315
#
# Disc length: 2854 seconds
#
# Revision: 1
# Processed by: cddbd v1.5.2PL0 Copyright (c) Steve Scherf et al.
# Submitted via: EasyCDDAExtractor 16.0.6.1
#
DISCID=e10b2410
DTITLE=Various Artist - Piano Blues, Boogie Woogie and Ragtime - 1927-1941
DYEAR=1999
DGENRE=Blues
TTITLE0=Sixes And Sevens - Cripple Clarence Lofton
TTITLE1=Talkin' Low Blues - Walter Roland - prob. Josh White
TTITLE2=Lookin' For The Blues - Jimmie Gordon
TTITLE3=Freakish Man Blues - George Hannah - Meade 'Lux' Lewis
TTITLE4=Barrel House Man - Will Ezel
TTITLE5=I Received A Letter - Faber Smith - Jimmy Yancey
TTITLE6=The Dirty Dozen No. 2 - Speckled Red
TTITLE7=Twenty-First Street Stomp - Henry Brown - Ike Rogers
TTITLE8=Roll' Em Pete - Joe Turner - Pete Johnson
TTITLE9=Davis Street Blues - Sugar Underwood
TTITLE10=Love Will Wear You Down - Roosevelt Sykes
TTITLE11=My Lovin' Blues - James 'Boodle It' Wiggins - Blind Leroy Garnett
TTITLE12=West Coast Rag - Will Ezel
TTITLE13=Gone Mother Blues - Leroy Carr - Scrapper Blackwell
TTITLE14=Pine Top Blues - Pine Top Smith
TTITLE15=Fives - Turner Parrish
EXTD=
EXTT0=
EXTT1=
EXTT2=
EXTT3=
EXTT4=
EXTT5=
EXTT6=
EXTT7=
EXTT8=
EXTT9=
EXTT10=
EXTT11=
EXTT12=
EXTT13=
EXTT14=
EXTT15=
PLAYORDER=
